<svg xmlns="http://www.w3.org/2000/svg" xmlns:xlink="http://www.w3.org/1999/xlink" width="2000" zoomAndPan="magnify" viewBox="0 0 1500 1499.999933" height="2000" preserveAspectRatio="xMidYMid meet" version="1.0"><defs><clipPath id="4520303b04"><path d="M 40.050781 0.476562 L 1453.09375 0.476562 L 1453.09375 1413.523438 L 40.050781 1413.523438 Z M 40.050781 0.476562 " clip-rule="nonzero"/></clipPath><clipPath id="42343de25a"><path d="M 746.574219 0.476562 C 356.371094 0.476562 40.050781 316.796875 40.050781 707 C 40.050781 1097.203125 356.371094 1413.523438 746.574219 1413.523438 C 1136.773438 1413.523438 1453.09375 1097.203125 1453.09375 707 C 1453.09375 316.796875 1136.773438 0.476562 746.574219 0.476562 Z M 746.574219 0.476562 " clip-rule="nonzero"/></clipPath><clipPath id="0853658b4c"><path d="M 0.0507812 0.476562 L 1413.09375 0.476562 L 1413.09375 1413.523438 L 0.0507812 1413.523438 Z M 0.0507812 0.476562 " clip-rule="nonzero"/></clipPath><clipPath id="0e78cf01b5"><path d="M 706.574219 0.476562 C 316.371094 0.476562 0.0507812 316.796875 0.0507812 707 C 0.0507812 1097.203125 316.371094 1413.523438 706.574219 1413.523438 C 1096.773438 1413.523438 1413.09375 1097.203125 1413.09375 707 C 1413.09375 316.796875 1096.773438 0.476562 706.574219 0.476562 Z M 706.574219 0.476562 " clip-rule="nonzero"/></clipPath><clipPath id="fe9813cc23"><rect x="0" width="1414" y="0" height="1414"/></clipPath><clipPath id="ff45bbc570"><path d="M 449.023438 203.984375 L 1112 203.984375 L 1112 1248 L 449.023438 1248 Z M 449.023438 203.984375 " clip-rule="nonzero"/></clipPath><clipPath id="d341e764e6"><rect x="0" width="1500" y="0" height="1414"/></clipPath></defs><g transform="matrix(1, 0, 0, 1, 0, 43)"><g clip-path="url(#d341e764e6)"><g clip-path="url(#4520303b04)"><g clip-path="url(#42343de25a)"><g transform="matrix(1, 0, 0, 1, 40, 0.000000000000113687)"><g clip-path="url(#fe9813cc23)"><g clip-path="url(#0853658b4c)"><g clip-path="url(#0e78cf01b5)"><path fill="#000000" d="M 0.0507812 0.476562 L 1413.09375 0.476562 L 1413.09375 1413.523438 L 0.0507812 1413.523438 Z M 0.0507812 0.476562 " fill-opacity="1" fill-rule="nonzero"/></g></g></g></g></g></g><g clip-path="url(#ff45bbc570)"><path fill="#b4b4b4" d="M 1095.472656 844.796875 C 1104.121094 873.5625 1108.847656 904.023438 1108.847656 935.566406 C 1108.847656 967.132812 1104.121094 997.636719 1095.472656 1026.402344 C 1087.671875 1052.242188 1076.648438 1076.726562 1062.890625 1099.324219 C 1045.445312 1127.878906 1023.566406 1153.382812 998.277344 1175.046875 C 953.039062 1213.714844 896.839844 1239.832031 835.046875 1247.949219 L 594.867188 1247.949219 L 594.867188 1135.789062 L 667.8125 1135.789062 L 667.8125 1175.046875 L 838.503906 1175.046875 C 891.710938 1165.105469 938.964844 1137.84375 973.960938 1099.324219 C 993.273438 1078.0625 1008.792969 1053.410156 1019.6875 1026.402344 C 1031.007812 998.292969 1037.324219 967.683594 1037.324219 935.566406 C 1037.324219 903.515625 1031.007812 872.882812 1019.6875 844.796875 C 1018.710938 842.316406 992.59375 792.964844 976.019531 774.246094 C 975.339844 773.441406 974.683594 772.636719 973.960938 771.871094 C 952.976562 748.746094 927.558594 729.6875 899.109375 715.972656 C 870.257812 702.042969 838.226562 693.671875 804.457031 692.207031 C 834.792969 681.058594 859.957031 659.179688 875.347656 631.199219 C 875.601562 630.773438 875.8125 630.351562 876.066406 629.925781 C 886.117188 611.207031 891.839844 589.839844 891.839844 567.113281 C 891.839844 565.226562 891.753906 563.382812 891.667969 561.476562 C 888.976562 497.117188 840.390625 444.398438 777.832031 435.324219 C 771.558594 434.390625 667.8125 435.324219 667.8125 435.324219 L 667.8125 771.871094 L 793.648438 771.871094 C 844.207031 771.871094 889.402344 794.808594 919.4375 830.824219 C 923.171875 835.277344 926.667969 839.960938 929.910156 844.796875 C 940.085938 860.058594 947.78125 877.144531 952.425781 895.4375 C 955.667969 908.304688 957.386719 921.746094 957.386719 935.566406 C 957.386719 969.1875 947.25 1000.414062 929.910156 1026.402344 C 900.550781 1070.367188 850.480469 1099.324219 793.648438 1099.324219 L 449.042969 1099.324219 L 449.042969 203.921875 L 730.539062 203.921875 C 814.210938 203.921875 891.625 231.03125 954.609375 276.84375 C 983.035156 297.574219 1008.578125 322.101562 1030.328125 349.746094 C 1033.613281 353.898438 1036.773438 358.117188 1039.847656 362.359375 C 1056.171875 384.957031 1070.097656 409.398438 1081.246094 435.324219 C 1101.003906 481.386719 1111.984375 532.117188 1111.984375 585.347656 C 1111.984375 623.375 1106.390625 660.09375 1095.960938 694.773438 C 1078.386719 672.726562 1058.394531 652.609375 1036.476562 634.84375 C 1039.085938 618.734375 1040.484375 602.199219 1040.484375 585.347656 C 1040.484375 530.949219 1026.34375 479.777344 1001.605469 435.324219 C 986.574219 408.273438 967.601562 383.707031 945.472656 362.359375 C 940.976562 358.035156 936.355469 353.816406 931.605469 349.746094 C 884.355469 309.402344 824.914062 282.925781 759.625 276.84375 C 750.019531 275.953125 521.964844 276.84375 521.964844 276.84375 L 521.964844 1026.402344 L 793.648438 1026.402344 C 843.804688 1026.402344 884.484375 985.722656 884.484375 935.566406 C 884.484375 935.164062 884.398438 934.78125 884.398438 934.359375 C 884.058594 908.476562 872.910156 885.304688 855.230469 868.984375 C 839.035156 853.996094 817.453125 844.796875 793.648438 844.796875 L 667.8125 844.796875 L 667.8125 989.921875 L 594.867188 989.921875 L 594.867188 362.359375 L 758.605469 362.359375 C 821.460938 362.359375 877.65625 390.722656 915.242188 435.324219 C 945.238281 470.914062 963.363281 516.894531 963.363281 567.113281 C 963.363281 574.066406 962.980469 580.871094 962.304688 587.65625 C 959.863281 612.097656 953.144531 635.3125 942.863281 656.445312 C 942.671875 656.871094 942.417969 657.273438 942.183594 657.695312 C 968.621094 671.878906 992.765625 689.707031 1013.964844 710.503906 C 1032.683594 728.796875 1049.175781 749.421875 1062.890625 771.871094 C 1062.933594 771.957031 1062.976562 772.042969 1063.015625 772.125 C 1076.773438 794.640625 1087.671875 819.039062 1095.472656 844.796875 Z M 1095.472656 844.796875 " fill-opacity="1" fill-rule="nonzero"/></g></g></g></svg>