<svg xmlns="http://www.w3.org/2000/svg" xmlns:xlink="http://www.w3.org/1999/xlink" width="500" zoomAndPan="magnify" viewBox="0 0 375 374.999991" height="500" preserveAspectRatio="xMidYMid meet" version="1.0"><defs><g/><clipPath id="908d12f0f8"><path d="M 127.433594 37.5 L 249.683594 37.5 L 249.683594 230 L 127.433594 230 Z M 127.433594 37.5 " clip-rule="nonzero"/></clipPath></defs><rect x="-37.5" width="450" fill="#ffffff" y="-37.499999" height="449.999989" fill-opacity="1"/><rect x="-37.5" width="450" fill="#000000" y="-37.499999" height="449.999989" fill-opacity="1"/><g clip-path="url(#908d12f0f8)"><path fill="#b4b4b4" d="M 246.554688 155.582031 C 248.148438 160.882812 249.019531 166.496094 249.019531 172.308594 C 249.019531 178.125 248.148438 183.746094 246.554688 189.046875 C 245.117188 193.808594 243.085938 198.320312 240.550781 202.484375 C 237.335938 207.746094 233.304688 212.445312 228.644531 216.4375 C 220.308594 223.5625 209.953125 228.375 198.566406 229.871094 L 154.308594 229.871094 L 154.308594 209.203125 L 167.75 209.203125 L 167.75 216.4375 L 199.203125 216.4375 C 209.007812 214.605469 217.714844 209.582031 224.164062 202.484375 C 227.722656 198.566406 230.582031 194.023438 232.589844 189.046875 C 234.675781 183.867188 235.839844 178.226562 235.839844 172.308594 C 235.839844 166.402344 234.675781 160.757812 232.589844 155.582031 C 232.410156 155.125 227.597656 146.03125 224.542969 142.582031 C 224.417969 142.433594 224.296875 142.285156 224.164062 142.144531 C 220.296875 137.882812 215.613281 134.371094 210.371094 131.84375 C 205.054688 129.277344 199.152344 127.734375 192.929688 127.464844 C 198.519531 125.410156 203.15625 121.378906 205.992188 116.222656 C 206.039062 116.144531 206.078125 116.066406 206.125 115.988281 C 207.976562 112.539062 209.03125 108.601562 209.03125 104.414062 C 209.03125 104.066406 209.015625 103.726562 209 103.375 C 208.503906 91.515625 199.550781 81.800781 188.023438 80.128906 C 186.867188 79.957031 167.75 80.128906 167.75 80.128906 L 167.75 142.144531 L 190.9375 142.144531 C 200.253906 142.144531 208.582031 146.371094 214.117188 153.007812 C 214.804688 153.828125 215.449219 154.691406 216.046875 155.582031 C 217.921875 158.394531 219.339844 161.542969 220.195312 164.914062 C 220.792969 167.285156 221.109375 169.761719 221.109375 172.308594 C 221.109375 178.503906 219.242188 184.257812 216.046875 189.046875 C 210.636719 197.148438 201.410156 202.484375 190.9375 202.484375 L 127.4375 202.484375 L 127.4375 37.488281 L 179.308594 37.488281 C 194.726562 37.488281 208.992188 42.484375 220.597656 50.925781 C 225.835938 54.746094 230.542969 59.265625 234.550781 64.359375 C 235.15625 65.125 235.738281 65.902344 236.304688 66.683594 C 239.3125 70.847656 241.878906 75.351562 243.933594 80.128906 C 247.574219 88.617188 249.597656 97.964844 249.597656 107.773438 C 249.597656 114.78125 248.566406 121.546875 246.644531 127.9375 C 243.40625 123.875 239.722656 120.167969 235.683594 116.894531 C 236.164062 113.925781 236.421875 110.878906 236.421875 107.773438 C 236.421875 97.75 233.816406 88.320312 229.257812 80.128906 C 226.488281 75.144531 222.992188 70.617188 218.914062 66.683594 C 218.085938 65.886719 217.234375 65.109375 216.359375 64.359375 C 207.652344 56.925781 196.699219 52.046875 184.667969 50.925781 C 182.898438 50.761719 140.875 50.925781 140.875 50.925781 L 140.875 189.046875 L 190.9375 189.046875 C 200.179688 189.046875 207.675781 181.550781 207.675781 172.308594 C 207.675781 172.234375 207.660156 172.164062 207.660156 172.085938 C 207.597656 167.316406 205.542969 163.046875 202.285156 160.039062 C 199.300781 157.277344 195.324219 155.582031 190.9375 155.582031 L 167.75 155.582031 L 167.75 182.324219 L 154.308594 182.324219 L 154.308594 66.683594 L 184.480469 66.683594 C 196.0625 66.683594 206.417969 71.910156 213.34375 80.128906 C 218.871094 86.6875 222.210938 95.160156 222.210938 104.414062 C 222.210938 105.695312 222.140625 106.949219 222.015625 108.199219 C 221.566406 112.703125 220.328125 116.980469 218.433594 120.875 C 218.398438 120.953125 218.351562 121.027344 218.308594 121.105469 C 223.179688 123.71875 227.628906 127.003906 231.535156 130.835938 C 234.984375 134.207031 238.023438 138.007812 240.550781 142.144531 C 240.558594 142.160156 240.566406 142.175781 240.574219 142.191406 C 243.109375 146.339844 245.117188 150.835938 246.554688 155.582031 Z M 246.554688 155.582031 " fill-opacity="1" fill-rule="nonzero"/></g><g fill="#b4b4b4" fill-opacity="1"><g transform="translate(24.920615, 287.681436)"><g><path d="M 16.25 -11.75 C 17.320312 -11.34375 18.191406 -10.691406 18.859375 -9.796875 C 19.535156 -8.910156 19.875 -7.757812 19.875 -6.34375 C 19.875 -4.976562 19.570312 -3.820312 18.96875 -2.875 C 18.363281 -1.9375 17.535156 -1.222656 16.484375 -0.734375 C 15.441406 -0.242188 14.28125 0 13 0 L 2.28125 0 L 2.28125 -23.203125 L 12.109375 -23.203125 C 13.421875 -23.203125 14.601562 -22.945312 15.65625 -22.4375 C 16.71875 -21.9375 17.554688 -21.203125 18.171875 -20.234375 C 18.796875 -19.273438 19.109375 -18.113281 19.109375 -16.75 C 19.109375 -15.53125 18.847656 -14.507812 18.328125 -13.6875 C 17.816406 -12.863281 17.125 -12.21875 16.25 -11.75 Z M 14 -16.203125 C 14 -16.898438 13.753906 -17.484375 13.265625 -17.953125 C 12.773438 -18.429688 12.179688 -18.671875 11.484375 -18.671875 L 7.390625 -18.671875 L 7.390625 -13.6875 L 11.484375 -13.6875 C 12.179688 -13.6875 12.773438 -13.9375 13.265625 -14.4375 C 13.753906 -14.945312 14 -15.535156 14 -16.203125 Z M 12.265625 -4.53125 C 12.984375 -4.53125 13.578125 -4.765625 14.046875 -5.234375 C 14.523438 -5.710938 14.765625 -6.300781 14.765625 -7 C 14.765625 -7.664062 14.523438 -8.25 14.046875 -8.75 C 13.578125 -9.257812 12.984375 -9.515625 12.265625 -9.515625 L 7.390625 -9.515625 L 7.390625 -4.53125 Z M 12.265625 -4.53125 "/></g></g></g><g fill="#b4b4b4" fill-opacity="1"><g transform="translate(52.325895, 287.681436)"><g><path d="M 14.390625 -9.546875 L 20.890625 0 L 15.15625 0 L 9.4375 -8.96875 L 7.390625 -8.96875 L 7.390625 0 L 2.28125 0 L 2.28125 -23.203125 L 12.140625 -23.203125 C 13.484375 -23.203125 14.671875 -22.882812 15.703125 -22.25 C 16.734375 -21.625 17.550781 -20.769531 18.15625 -19.6875 C 18.757812 -18.601562 19.0625 -17.40625 19.0625 -16.09375 C 19.0625 -14.519531 18.625 -13.140625 17.75 -11.953125 C 16.875 -10.765625 15.753906 -9.960938 14.390625 -9.546875 Z M 11.375 -13.1875 C 12.195312 -13.1875 12.867188 -13.441406 13.390625 -13.953125 C 13.921875 -14.472656 14.1875 -15.132812 14.1875 -15.9375 C 14.1875 -16.726562 13.921875 -17.378906 13.390625 -17.890625 C 12.867188 -18.410156 12.195312 -18.671875 11.375 -18.671875 L 7.390625 -18.671875 L 7.390625 -13.1875 Z M 11.375 -13.1875 "/></g></g></g><g fill="#b4b4b4" fill-opacity="1"><g transform="translate(79.421806, 287.681436)"><g><path d="M 13.34375 0.3125 C 11.6875 0.3125 10.144531 0.00390625 8.71875 -0.609375 C 7.289062 -1.234375 6.023438 -2.09375 4.921875 -3.1875 C 3.828125 -4.28125 2.972656 -5.539062 2.359375 -6.96875 C 1.742188 -8.40625 1.4375 -9.953125 1.4375 -11.609375 C 1.4375 -13.253906 1.742188 -14.789062 2.359375 -16.21875 C 2.972656 -17.65625 3.828125 -18.921875 4.921875 -20.015625 C 6.023438 -21.109375 7.289062 -21.960938 8.71875 -22.578125 C 10.144531 -23.203125 11.6875 -23.515625 13.34375 -23.515625 C 14.988281 -23.515625 16.53125 -23.203125 17.96875 -22.578125 C 19.414062 -21.960938 20.679688 -21.109375 21.765625 -20.015625 C 22.847656 -18.921875 23.695312 -17.65625 24.3125 -16.21875 C 24.9375 -14.789062 25.25 -13.253906 25.25 -11.609375 C 25.25 -9.953125 24.9375 -8.40625 24.3125 -6.96875 C 23.695312 -5.539062 22.847656 -4.28125 21.765625 -3.1875 C 20.679688 -2.09375 19.414062 -1.234375 17.96875 -0.609375 C 16.53125 0.00390625 14.988281 0.3125 13.34375 0.3125 Z M 13.34375 -4.671875 C 14.65625 -4.671875 15.832031 -4.972656 16.875 -5.578125 C 17.925781 -6.191406 18.753906 -7.019531 19.359375 -8.0625 C 19.960938 -9.101562 20.265625 -10.285156 20.265625 -11.609375 C 20.265625 -12.921875 19.960938 -14.097656 19.359375 -15.140625 C 18.753906 -16.179688 17.925781 -17.003906 16.875 -17.609375 C 15.832031 -18.222656 14.65625 -18.53125 13.34375 -18.53125 C 12.050781 -18.53125 10.882812 -18.222656 9.84375 -17.609375 C 8.800781 -17.003906 7.972656 -16.179688 7.359375 -15.140625 C 6.753906 -14.097656 6.453125 -12.921875 6.453125 -11.609375 C 6.453125 -10.285156 6.753906 -9.101562 7.359375 -8.0625 C 7.972656 -7.019531 8.800781 -6.191406 9.84375 -5.578125 C 10.882812 -4.972656 12.050781 -4.671875 13.34375 -4.671875 Z M 13.34375 -4.671875 "/></g></g></g><g fill="#b4b4b4" fill-opacity="1"><g transform="translate(112.550527, 287.681436)"><g><path d="M 26.953125 -23.203125 L 32.328125 -23.203125 L 25.984375 0 L 20.109375 0 L 15.890625 -16.3125 L 11.671875 0 L 5.796875 0 L -0.546875 -23.203125 L 4.828125 -23.203125 L 9.015625 -7.03125 L 13.421875 -23.203125 L 18.375 -23.203125 L 22.8125 -7.109375 Z M 26.953125 -23.203125 "/></g></g></g><g fill="#b4b4b4" fill-opacity="1"><g transform="translate(150.745273, 287.681436)"><g><path d="M 9.4375 0.3125 C 7.394531 0.3125 5.597656 -0.1875 4.046875 -1.1875 C 2.503906 -2.195312 1.363281 -3.425781 0.625 -4.875 L 4.828125 -7.5 C 5.265625 -6.601562 5.882812 -5.875 6.6875 -5.3125 C 7.488281 -4.757812 8.414062 -4.484375 9.46875 -4.484375 C 10.375 -4.484375 11.078125 -4.675781 11.578125 -5.0625 C 12.085938 -5.445312 12.34375 -5.960938 12.34375 -6.609375 C 12.34375 -7.285156 12.082031 -7.828125 11.5625 -8.234375 C 11.050781 -8.648438 10.390625 -9 9.578125 -9.28125 C 8.765625 -9.5625 7.898438 -9.863281 6.984375 -10.1875 C 6.066406 -10.507812 5.203125 -10.925781 4.390625 -11.4375 C 3.578125 -11.957031 2.910156 -12.628906 2.390625 -13.453125 C 1.878906 -14.285156 1.625 -15.359375 1.625 -16.671875 C 1.625 -18.210938 1.984375 -19.484375 2.703125 -20.484375 C 3.429688 -21.492188 4.367188 -22.25 5.515625 -22.75 C 6.660156 -23.257812 7.835938 -23.515625 9.046875 -23.515625 C 10.492188 -23.515625 11.832031 -23.207031 13.0625 -22.59375 C 14.300781 -21.988281 15.347656 -21.195312 16.203125 -20.21875 L 12.796875 -16.984375 C 12.234375 -17.617188 11.628906 -18.109375 10.984375 -18.453125 C 10.335938 -18.804688 9.679688 -18.984375 9.015625 -18.984375 C 8.390625 -18.984375 7.859375 -18.828125 7.421875 -18.515625 C 6.984375 -18.210938 6.765625 -17.722656 6.765625 -17.046875 C 6.765625 -16.378906 7.019531 -15.851562 7.53125 -15.46875 C 8.050781 -15.082031 8.71875 -14.742188 9.53125 -14.453125 C 10.34375 -14.171875 11.195312 -13.863281 12.09375 -13.53125 C 13 -13.195312 13.859375 -12.757812 14.671875 -12.21875 C 15.484375 -11.675781 16.144531 -10.957031 16.65625 -10.0625 C 17.175781 -9.175781 17.4375 -8.015625 17.4375 -6.578125 C 17.4375 -5.128906 17.066406 -3.890625 16.328125 -2.859375 C 15.597656 -1.828125 14.628906 -1.039062 13.421875 -0.5 C 12.210938 0.0390625 10.882812 0.3125 9.4375 0.3125 Z M 9.4375 0.3125 "/></g></g></g><g fill="#b4b4b4" fill-opacity="1"><g transform="translate(175.48219, 287.681436)"><g><path d="M 16.4375 -18.71875 L 7.578125 -18.71875 L 7.578125 -13.84375 L 15.15625 -13.84375 L 15.15625 -9.359375 L 7.578125 -9.359375 L 7.578125 -4.484375 L 16.4375 -4.484375 L 16.4375 0 L 2.46875 0 L 2.46875 -23.203125 L 16.4375 -23.203125 Z M 16.4375 -18.71875 "/></g></g></g><g fill="#b4b4b4" fill-opacity="1"><g transform="translate(199.90974, 287.681436)"><g><path d="M 14.390625 -9.546875 L 20.890625 0 L 15.15625 0 L 9.4375 -8.96875 L 7.390625 -8.96875 L 7.390625 0 L 2.28125 0 L 2.28125 -23.203125 L 12.140625 -23.203125 C 13.484375 -23.203125 14.671875 -22.882812 15.703125 -22.25 C 16.734375 -21.625 17.550781 -20.769531 18.15625 -19.6875 C 18.757812 -18.601562 19.0625 -17.40625 19.0625 -16.09375 C 19.0625 -14.519531 18.625 -13.140625 17.75 -11.953125 C 16.875 -10.765625 15.753906 -9.960938 14.390625 -9.546875 Z M 11.375 -13.1875 C 12.195312 -13.1875 12.867188 -13.441406 13.390625 -13.953125 C 13.921875 -14.472656 14.1875 -15.132812 14.1875 -15.9375 C 14.1875 -16.726562 13.921875 -17.378906 13.390625 -17.890625 C 12.867188 -18.410156 12.195312 -18.671875 11.375 -18.671875 L 7.390625 -18.671875 L 7.390625 -13.1875 Z M 11.375 -13.1875 "/></g></g></g><g fill="#b4b4b4" fill-opacity="1"><g transform="translate(227.00564, 287.681436)"><g><path d="M 16.25 -11.75 C 17.320312 -11.34375 18.191406 -10.691406 18.859375 -9.796875 C 19.535156 -8.910156 19.875 -7.757812 19.875 -6.34375 C 19.875 -4.976562 19.570312 -3.820312 18.96875 -2.875 C 18.363281 -1.9375 17.535156 -1.222656 16.484375 -0.734375 C 15.441406 -0.242188 14.28125 0 13 0 L 2.28125 0 L 2.28125 -23.203125 L 12.109375 -23.203125 C 13.421875 -23.203125 14.601562 -22.945312 15.65625 -22.4375 C 16.71875 -21.9375 17.554688 -21.203125 18.171875 -20.234375 C 18.796875 -19.273438 19.109375 -18.113281 19.109375 -16.75 C 19.109375 -15.53125 18.847656 -14.507812 18.328125 -13.6875 C 17.816406 -12.863281 17.125 -12.21875 16.25 -11.75 Z M 14 -16.203125 C 14 -16.898438 13.753906 -17.484375 13.265625 -17.953125 C 12.773438 -18.429688 12.179688 -18.671875 11.484375 -18.671875 L 7.390625 -18.671875 L 7.390625 -13.6875 L 11.484375 -13.6875 C 12.179688 -13.6875 12.773438 -13.9375 13.265625 -14.4375 C 13.753906 -14.945312 14 -15.535156 14 -16.203125 Z M 12.265625 -4.53125 C 12.984375 -4.53125 13.578125 -4.765625 14.046875 -5.234375 C 14.523438 -5.710938 14.765625 -6.300781 14.765625 -7 C 14.765625 -7.664062 14.523438 -8.25 14.046875 -8.75 C 13.578125 -9.257812 12.984375 -9.515625 12.265625 -9.515625 L 7.390625 -9.515625 L 7.390625 -4.53125 Z M 12.265625 -4.53125 "/></g></g></g><g fill="#b4b4b4" fill-opacity="1"><g transform="translate(254.410941, 287.681436)"><g><path d="M 14.390625 -9.546875 L 20.890625 0 L 15.15625 0 L 9.4375 -8.96875 L 7.390625 -8.96875 L 7.390625 0 L 2.28125 0 L 2.28125 -23.203125 L 12.140625 -23.203125 C 13.484375 -23.203125 14.671875 -22.882812 15.703125 -22.25 C 16.734375 -21.625 17.550781 -20.769531 18.15625 -19.6875 C 18.757812 -18.601562 19.0625 -17.40625 19.0625 -16.09375 C 19.0625 -14.519531 18.625 -13.140625 17.75 -11.953125 C 16.875 -10.765625 15.753906 -9.960938 14.390625 -9.546875 Z M 11.375 -13.1875 C 12.195312 -13.1875 12.867188 -13.441406 13.390625 -13.953125 C 13.921875 -14.472656 14.1875 -15.132812 14.1875 -15.9375 C 14.1875 -16.726562 13.921875 -17.378906 13.390625 -17.890625 C 12.867188 -18.410156 12.195312 -18.671875 11.375 -18.671875 L 7.390625 -18.671875 L 7.390625 -13.1875 Z M 11.375 -13.1875 "/></g></g></g><g fill="#b4b4b4" fill-opacity="1"><g transform="translate(281.506841, 287.681436)"><g><path d="M 16.46875 0 L 15.046875 -4.375 L 6.375 -4.375 L 4.953125 0 L -0.5 0 L 7.84375 -23.203125 L 13.578125 -23.203125 L 21.921875 0 Z M 7.734375 -8.625 L 13.6875 -8.625 L 10.71875 -17.828125 Z M 7.734375 -8.625 "/></g></g></g><g fill="#b4b4b4" fill-opacity="1"><g transform="translate(309.33752, 287.681436)"><g><path d="M 2.46875 0 L 2.46875 -23.203125 L 7.578125 -23.203125 L 7.578125 0 Z M 2.46875 0 "/></g></g></g><g fill="#b4b4b4" fill-opacity="1"><g transform="translate(325.759997, 287.681436)"><g><path d="M 18.953125 -23.203125 L 24.015625 -23.203125 L 24.015625 0 L 18.75 0 L 7.390625 -15.390625 L 7.390625 0 L 2.28125 0 L 2.28125 -23.203125 L 7.546875 -23.203125 L 18.953125 -7.84375 Z M 18.953125 -23.203125 "/></g></g></g></svg>